<?xml version="1.0" standalone="no"?>
<!DOCTYPE svg PUBLIC "-//W3C//DTD SVG 20010904//EN"
 "http://www.w3.org/TR/2001/REC-SVG-20010904/DTD/svg10.dtd">
<svg version="1.0" xmlns="http://www.w3.org/2000/svg"
 width="512.000000pt" height="512.000000pt" viewBox="0 0 512.000000 512.000000"
 preserveAspectRatio="xMidYMid meet">

<g transform="translate(0.000000,512.000000) scale(0.100000,-0.100000)"
fill="#000000" stroke="none">
<path d="M2370 5114 c-402 -50 -602 -105 -879 -241 -331 -164 -656 -433 -895
-742 l-81 -106 -3 293 -2 292 -255 0 -255 0 0 -770 0 -770 768 2 767 3 3 252
2 253 -361 2 -360 3 82 110 c292 390 596 635 969 783 482 191 1115 149 1635
-108 453 -223 785 -574 966 -1021 270 -664 184 -1415 -228 -1992 -70 -98 -279
-316 -383 -400 -403 -325 -910 -482 -1420 -438 -476 42 -894 217 -1245 521
l-69 61 -178 -178 c-136 -136 -175 -180 -168 -192 13 -25 206 -194 295 -259
359 -263 782 -419 1255 -462 628 -56 1258 116 1734 475 173 130 400 357 535
536 274 364 444 791 502 1264 15 129 16 452 0 580 -37 304 -128 609 -257 868
-355 706 -1043 1214 -1834 1354 -122 21 -181 26 -375 28 -126 2 -246 1 -265
-1z"/>
</g>
</svg>
