<?xml version="1.0" standalone="no"?>
<!DOCTYPE svg PUBLIC "-//W3C//DTD SVG 20010904//EN"
 "http://www.w3.org/TR/2001/REC-SVG-20010904/DTD/svg10.dtd">
<svg version="1.0" xmlns="http://www.w3.org/2000/svg"
 width="512.000000pt" height="512.000000pt" viewBox="0 0 512.000000 512.000000"
 preserveAspectRatio="xMidYMid meet">

<g transform="translate(0.000000,512.000000) scale(0.100000,-0.100000)"
fill="#000000" stroke="none">
<path d="M2290 5113 c-464 -47 -908 -223 -1297 -514 -131 -98 -391 -358 -487
-489 -255 -344 -419 -746 -482 -1185 -22 -148 -25 -512 -6 -661 61 -478 246
-923 533 -1285 107 -134 306 -337 424 -432 353 -285 772 -463 1245 -528 143
-20 545 -18 695 5 395 58 748 189 1043 388 102 69 256 195 329 270 l63 63
-180 180 -180 179 -42 -41 c-71 -69 -261 -206 -376 -271 -282 -159 -571 -246
-910 -273 -386 -31 -789 57 -1121 245 -301 170 -581 439 -751 721 -290 480
-373 1058 -231 1606 99 383 314 734 600 979 561 482 1357 652 2022 430 390
-129 743 -407 1042 -816 37 -51 67 -95 67 -98 0 -3 -160 -6 -355 -6 l-355 0 0
-255 0 -255 770 0 770 0 0 770 0 770 -257 -2 -258 -3 -3 -288 -2 -289 -69 89
c-398 514 -915 844 -1489 953 -183 34 -357 50 -542 48 -96 0 -191 -3 -210 -5z"/>
</g>
</svg>
