<?xml version="1.0" standalone="no"?>
<!DOCTYPE svg PUBLIC "-//W3C//DTD SVG 20010904//EN"
 "http://www.w3.org/TR/2001/REC-SVG-20010904/DTD/svg10.dtd">
<svg version="1.0" xmlns="http://www.w3.org/2000/svg"
 width="512.000000pt" height="512.000000pt" viewBox="0 0 512.000000 512.000000"
 preserveAspectRatio="xMidYMid meet">

<g transform="translate(0.000000,512.000000) scale(0.100000,-0.100000)"
fill="#000000" stroke="none">
<path d="M850 3840 l0 -210 1730 0 c1542 0 1735 2 1768 16 170 70 176 300 10
385 -36 18 -85 19 -1773 19 l-1735 0 0 -210z"/>
<path d="M2045 2753 c-164 -86 -166 -300 -3 -384 36 -18 74 -19 1155 -19 1067
0 1120 1 1158 19 164 76 166 298 3 382 -36 18 -74 19 -1160 19 -1003 -1 -1126
-2 -1153 -17z"/>
<path d="M3099 1467 c-24 -13 -57 -43 -74 -66 -27 -39 -30 -50 -30 -120 0 -68
3 -82 27 -117 15 -21 44 -50 65 -64 l37 -25 585 -3 c404 -2 598 0 624 8 20 6
54 25 74 43 114 100 90 277 -49 348 -35 18 -66 19 -626 19 l-589 0 -44 -23z"/>
</g>
</svg>
