<?xml version="1.0" standalone="no"?>
<!DOCTYPE svg PUBLIC "-//W3C//DTD SVG 20010904//EN"
 "http://www.w3.org/TR/2001/REC-SVG-20010904/DTD/svg10.dtd">
<svg version="1.0" xmlns="http://www.w3.org/2000/svg"
 width="512.000000pt" height="512.000000pt" viewBox="0 0 512.000000 512.000000"
 preserveAspectRatio="xMidYMid meet">

<g transform="translate(0.000000,512.000000) scale(0.100000,-0.100000)"
fill="#000000" stroke="none">
<path d="M2505 4509 c-88 -9 -143 -23 -223 -60 -168 -76 -310 -222 -378 -389
-54 -133 -55 -157 -52 -915 l3 -700 24 -70 c85 -254 273 -436 521 -502 100
-27 283 -24 380 6 241 74 419 245 498 478 l27 78 3 720 c3 815 4 798 -73 953
-110 218 -328 375 -551 397 -32 3 -70 7 -84 9 -14 1 -56 -1 -95 -5z"/>
<path d="M1321 2732 c-69 -37 -84 -112 -61 -300 59 -465 361 -868 792 -1054
98 -42 245 -84 335 -94 l53 -7 0 -223 0 -224 -302 0 c-269 0 -307 -2 -337 -18
-50 -25 -73 -61 -73 -116 -1 -50 17 -84 63 -119 24 -17 62 -19 760 -24 564 -5
743 -3 771 6 20 7 51 28 68 47 59 68 31 174 -57 210 -25 11 -100 14 -323 14
l-290 0 0 224 0 224 48 6 c88 13 215 48 308 86 347 141 620 429 748 788 54
151 91 422 67 494 -37 111 -183 131 -247 33 -12 -18 -19 -60 -24 -143 -9 -134
-27 -219 -70 -329 -93 -243 -277 -442 -515 -558 -402 -197 -865 -125 -1188
184 -195 186 -302 423 -322 716 -4 55 -14 113 -22 128 -31 62 -116 84 -182 49z"/>
</g>
</svg>
