<?xml version="1.0" standalone="no"?>
<!DOCTYPE svg PUBLIC "-//W3C//DTD SVG 20010904//EN"
 "http://www.w3.org/TR/2001/REC-SVG-20010904/DTD/svg10.dtd">
<svg version="1.0" xmlns="http://www.w3.org/2000/svg"
 width="736.000000pt" height="736.000000pt" viewBox="0 0 736.000000 736.000000"
 preserveAspectRatio="xMidYMid meet">

<g transform="translate(0.000000,736.000000) scale(0.100000,-0.100000)"
fill="#000000" stroke="none">
<path d="M3135 6820 l-540 -540 -757 0 -758 0 0 -757 0 -758 -542 -542 -543
-543 543 -543 542 -542 0 -758 0 -757 757 0 758 0 542 -542 543 -543 543 543
542 542 758 0 757 0 0 757 0 758 542 542 543 543 -543 543 -542 542 0 758 0
757 -758 0 -757 0 -540 540 c-297 297 -542 540 -545 540 -3 0 -248 -243 -545
-540z m1020 -410 l470 -470 657 0 658 0 0 -657 0 -658 471 -471 471 -471 -471
-472 -471 -471 0 -660 0 -660 -660 0 -660 0 -470 -470 -470 -470 -470 470
-471 470 -659 0 -660 0 0 660 0 660 -470 470 -470 470 470 470 470 469 0 660
0 661 660 0 660 0 467 469 c258 258 470 470 473 470 3 1 217 -210 475 -469z"/>
</g>
</svg>
