<?xml version="1.0" standalone="no"?>
<!DOCTYPE svg PUBLIC "-//W3C//DTD SVG 20010904//EN"
 "http://www.w3.org/TR/2001/REC-SVG-20010904/DTD/svg10.dtd">
<svg version="1.0" xmlns="http://www.w3.org/2000/svg"
 width="512.000000pt" height="512.000000pt" viewBox="0 0 512.000000 512.000000"
 preserveAspectRatio="xMidYMid meet">

<g transform="translate(0.000000,512.000000) scale(0.100000,-0.100000)"
fill="#000000" stroke="none">
<path d="M2250 4899 c-79 -13 -170 -61 -233 -123 -122 -120 -174 -317 -165
-615 6 -159 24 -233 80 -315 l27 -39 -32 -21 c-57 -38 -301 -394 -340 -496
-14 -36 -30 -96 -36 -135 -19 -121 -54 -1250 -48 -1555 5 -235 8 -287 26 -353
28 -108 75 -190 151 -268 l65 -67 -92 -4 c-72 -4 -103 -11 -138 -29 -63 -33
-531 -464 -544 -500 -21 -62 29 -139 90 -139 16 0 151 18 300 40 149 22 289
40 310 40 39 0 39 0 39 -39 0 -76 -75 -71 1035 -71 600 0 1014 4 1050 10 183
30 293 153 303 339 8 156 -39 282 -148 391 -58 58 -125 100 -590 371 l-525
305 -3 175 -2 174 387 221 388 222 -2 45 -1 45 48 6 c76 10 204 79 269 146
120 122 182 313 133 410 -19 38 -55 56 -93 47 -13 -4 -56 -33 -95 -65 -63 -51
-176 -132 -186 -132 -2 0 -2 18 0 40 6 58 -19 84 -72 77 -67 -9 -161 -63 -214
-123 -30 -33 -53 -51 -57 -45 -3 6 -14 11 -24 11 -9 0 -129 -52 -266 -115
-136 -63 -250 -113 -253 -110 -3 2 -45 204 -93 447 -73 365 -92 446 -109 460
-26 21 -25 25 8 33 39 9 116 61 152 101 16 19 42 58 58 87 26 51 27 57 30 247
2 115 -1 232 -8 285 -18 135 -58 293 -88 350 -63 117 -201 212 -342 235 -73
11 -74 11 -150 -1z"/>
</g>
</svg>
