<?xml version="1.0" standalone="no"?>
<!DOCTYPE svg PUBLIC "-//W3C//DTD SVG 20010904//EN"
 "http://www.w3.org/TR/2001/REC-SVG-20010904/DTD/svg10.dtd">
<svg version="1.0" xmlns="http://www.w3.org/2000/svg"
 width="512.000000pt" height="512.000000pt" viewBox="0 0 512.000000 512.000000"
 preserveAspectRatio="xMidYMid meet">

<g transform="translate(0.000000,512.000000) scale(0.100000,-0.100000)"
fill="#000000" stroke="none">
<path d="M1309 5091 l-29 -29 0 -1982 0 -1981 25 -24 24 -25 1487 0 c1111 0
1497 3 1526 12 55 16 121 78 147 137 l21 50 -2 1848 c-3 1745 -4 1850 -21
1880 -24 45 -77 96 -123 119 -38 18 -78 19 -1532 22 l-1493 2 -30 -29z m1556
-416 c21 -20 25 -34 25 -80 0 -43 3 -55 16 -55 33 0 131 -56 174 -99 25 -25
60 -71 77 -102 39 -70 59 -82 158 -102 103 -21 176 -66 235 -144 25 -32 54
-84 63 -114 l18 -56 54 -12 c111 -25 218 -121 267 -241 23 -55 23 -56 23 -610
l0 -555 -23 -58 c-44 -108 -160 -209 -274 -237 -44 -11 -47 -15 -63 -62 -45
-138 -176 -248 -315 -265 -67 -8 -106 -35 -145 -101 -17 -30 -51 -74 -75 -98
-41 -41 -147 -104 -177 -104 -9 0 -13 -15 -13 -54 0 -44 -4 -58 -26 -80 -18
-17 -37 -26 -58 -26 -56 1 -86 41 -86 114 0 32 -4 46 -13 46 -8 0 -40 13 -73
30 -68 34 -139 103 -181 175 -37 63 -77 90 -143 98 -143 17 -271 129 -319 278
-10 32 -18 38 -58 48 -146 37 -265 163 -293 310 -6 32 -10 256 -10 550 0 539
2 567 57 659 51 88 163 170 256 187 33 7 37 11 51 59 41 139 175 247 338 270
59 9 92 35 124 99 14 27 47 71 73 96 46 45 144 101 175 101 13 0 16 12 16 55
0 46 4 60 25 80 33 34 87 34 120 0z"/>
<path d="M2693 4350 c-42 -24 -60 -44 -92 -99 -64 -108 -137 -161 -246 -176
-121 -18 -195 -94 -210 -217 -10 -77 -33 -98 -117 -105 -73 -7 -121 -28 -166
-74 -60 -62 -62 -81 -62 -616 0 -320 4 -499 11 -528 14 -55 70 -122 123 -146
23 -10 63 -19 89 -19 58 0 105 -22 111 -53 3 -12 10 -48 16 -79 21 -106 88
-170 200 -189 114 -20 198 -78 245 -170 93 -181 324 -185 416 -6 48 92 137
158 234 172 130 19 203 89 220 210 4 28 9 58 12 68 7 26 56 47 110 47 26 0 66
9 89 19 53 24 109 91 123 146 14 57 15 1005 1 1055 -25 92 -99 149 -208 161
-96 11 -117 28 -126 105 -8 68 -34 121 -78 160 -40 35 -71 48 -157 65 -104 20
-151 59 -244 203 -63 98 -189 126 -294 66z m261 -504 c159 -31 274 -94 403
-222 80 -80 97 -103 141 -195 61 -127 82 -215 82 -352 0 -429 -343 -769 -775
-769 -301 0 -568 167 -700 437 -50 102 -67 175 -72 311 -7 150 14 244 84 384
39 79 62 110 138 185 94 93 161 140 266 182 127 51 291 66 433 39z"/>
<path d="M2651 3670 c-209 -55 -382 -231 -436 -445 -19 -75 -19 -202 0 -283
97 -410 577 -597 930 -361 166 112 265 296 265 496 0 110 -14 172 -62 273 -32
67 -57 101 -117 160 -45 45 -102 89 -138 108 -133 70 -298 89 -442 52z"/>
<path d="M941 5090 c-153 -55 -275 -189 -316 -347 -22 -84 -22 -4069 0 -4152
51 -194 216 -342 411 -371 94 -13 110 -13 128 6 20 19 22 127 4 142 -7 5 -40
13 -73 17 -91 11 -159 41 -213 93 -74 73 -97 128 -97 237 0 78 4 97 27 140 46
88 123 150 230 184 74 24 68 -162 68 2034 l0 1979 -29 29 c-35 34 -64 36 -140
9z"/>
<path d="M1022 849 c-59 -38 -90 -135 -61 -192 32 -61 88 -98 155 -100 52 -2
64 10 64 66 0 78 91 117 145 62 l25 -24 0 -243 c0 -234 1 -245 24 -293 27 -59
46 -77 106 -104 59 -27 94 -26 211 5 l98 27 105 -27 c58 -14 116 -26 128 -26
76 0 157 54 189 125 16 35 19 69 19 278 0 290 5 307 94 307 44 0 76 -35 76
-83 0 -24 7 -44 20 -57 20 -20 33 -20 910 -20 957 0 943 -1 970 50 8 14 11 60
8 127 -3 96 -5 106 -27 124 -23 19 -63 19 -1625 19 l-1601 0 -33 -21z"/>
<path d="M2410 361 c-18 -34 -12 -109 10 -131 20 -20 33 -20 995 -20 851 0
980 2 1005 15 39 20 53 49 46 91 -13 68 56 64 -1048 64 -976 0 -998 0 -1008
-19z"/>
</g>
</svg>
