<?xml version="1.0" standalone="no"?>
<!DOCTYPE svg PUBLIC "-//W3C//DTD SVG 20010904//EN"
 "http://www.w3.org/TR/2001/REC-SVG-20010904/DTD/svg10.dtd">
<svg version="1.0" xmlns="http://www.w3.org/2000/svg"
 width="512.000000pt" height="512.000000pt" viewBox="0 0 512.000000 512.000000"
 preserveAspectRatio="xMidYMid meet">

<g transform="translate(0.000000,512.000000) scale(0.100000,-0.100000)"
fill="#000000" stroke="none">
<path d="M2429 4750 c-21 -11 -52 -37 -71 -59 l-35 -41 -33 35 c-91 94 -247
78 -320 -34 -17 -24 -30 -50 -30 -58 0 -17 0 -17 -56 14 -107 60 -231 23 -286
-86 -16 -30 -28 -67 -28 -82 l0 -28 -35 15 c-139 58 -297 -63 -283 -215 l5
-48 -56 0 c-61 0 -120 -24 -158 -65 -51 -54 -68 -153 -38 -225 8 -19 15 -37
15 -38 0 -1 -18 -5 -41 -8 -90 -12 -169 -109 -169 -206 0 -46 28 -122 49 -135
18 -12 13 -23 -14 -30 -37 -9 -96 -65 -116 -111 -25 -54 -24 -128 2 -182 17
-36 40 -59 98 -100 3 -2 -10 -18 -28 -37 -62 -64 -74 -166 -28 -248 33 -60
116 -108 188 -108 25 0 26 -1 21 -55 -14 -167 153 -283 301 -208 31 16 47 10
47 -16 0 -9 13 -38 29 -64 40 -62 96 -91 176 -91 65 0 104 15 146 58 l26 26
13 -30 c18 -43 82 -97 132 -110 78 -22 168 6 215 65 l26 32 46 -47 c71 -73
147 -88 238 -46 35 17 60 38 78 64 l27 40 35 -39 c78 -86 213 -87 301 -3 47
45 48 45 73 2 5 -10 31 -30 57 -45 56 -33 137 -37 191 -10 42 21 51 21 51 2 0
-29 39 -93 76 -123 47 -39 116 -56 171 -44 l41 10 -5 -32 c-12 -75 41 -167
119 -207 l38 -19 0 -94 0 -93 -48 -30 c-69 -43 -89 -89 -118 -278 -13 -85 -60
-321 -104 -525 -62 -286 -78 -376 -70 -391 11 -19 22 -19 392 -17 341 3 382 5
391 19 8 13 -10 114 -71 395 -45 209 -91 442 -102 519 -26 174 -53 236 -122
280 l-47 30 0 92 -1 92 48 24 c59 29 102 89 109 150 l5 45 62 4 c123 8 197 77
204 192 3 46 0 74 -12 96 -19 40 -16 46 31 53 21 4 55 21 76 38 92 76 107 202
35 292 -16 21 -28 39 -27 40 68 36 89 52 114 87 27 37 30 50 30 114 0 63 -4
78 -28 115 -15 23 -41 50 -57 60 l-30 18 31 29 c116 110 81 302 -65 355 l-34
12 26 40 c34 52 42 147 17 198 -35 68 -91 110 -169 124 -29 6 -36 11 -30 24
45 110 3 225 -101 276 -46 23 -65 27 -108 22 l-52 -5 3 46 c5 70 -38 148 -102
187 -58 35 -140 41 -195 13 -42 -22 -41 -22 -41 5 -1 37 -35 100 -73 134 -74
65 -176 69 -260 10 -16 -10 -29 -18 -31 -16 -1 2 -8 19 -16 37 -54 137 -229
170 -341 66 l-25 -24 -31 43 c-57 81 -179 112 -264 67z m-67 -325 c24 -31 80
-61 131 -70 52 -10 118 11 166 52 l40 34 15 -28 c33 -64 101 -103 181 -103 60
0 112 17 134 43 19 24 28 21 34 -12 8 -40 63 -100 112 -122 51 -24 119 -24
171 0 l42 19 5 -41 c7 -55 52 -115 107 -144 36 -20 57 -24 106 -21 l61 3 0
-56 c0 -104 78 -195 177 -206 39 -5 46 -9 40 -22 -20 -46 -26 -108 -15 -149
15 -54 80 -127 127 -142 39 -13 40 -17 18 -41 -22 -24 -43 -87 -44 -130 0 -64
48 -140 118 -184 1 -1 -16 -20 -38 -43 -70 -74 -78 -172 -21 -263 36 -58 36
-59 16 -59 -20 0 -93 -66 -109 -99 -26 -49 -28 -105 -9 -163 l19 -55 -45 -12
c-85 -23 -142 -88 -157 -178 l-6 -38 -67 -1 c-66 -2 -68 -1 -63 21 2 13 -3 48
-12 78 -17 57 -70 118 -122 137 -43 17 -131 12 -173 -10 l-39 -19 -6 31 c-10
49 -46 98 -95 129 -36 23 -56 29 -103 29 -72 0 -112 -17 -157 -63 l-34 -36
-39 44 c-80 91 -216 96 -302 12 -24 -23 -45 -49 -48 -57 -4 -11 -12 -6 -34 19
-36 43 -96 71 -157 71 -62 0 -111 -21 -154 -67 l-34 -36 -31 38 c-39 47 -99
74 -162 75 -53 0 -121 -27 -151 -60 -18 -20 -19 -20 -39 17 -50 89 -172 128
-268 85 l-46 -20 -11 40 c-15 48 -75 116 -118 135 -18 7 -53 13 -78 13 -42 0
-46 2 -40 21 13 41 6 117 -14 157 -19 38 -65 85 -93 95 -9 3 -3 15 19 38 74
79 83 183 21 271 -23 33 -23 35 5 42 36 9 98 67 118 110 23 50 24 114 4 163
-21 49 -20 50 26 56 53 7 110 47 140 100 18 32 24 57 24 107 l0 65 43 -4 c113
-9 222 92 222 206 0 21 2 21 28 7 40 -21 135 -18 181 6 47 23 85 67 101 115
11 33 14 35 28 22 58 -50 162 -63 231 -27 38 19 91 72 91 91 0 16 11 10 32
-16z m1374 -2943 c34 -27 45 -57 65 -181 10 -64 19 -119 19 -123 0 -5 -63 -8
-140 -8 l-139 0 4 28 c9 46 35 217 35 224 0 4 14 23 31 43 25 28 38 35 68 35
20 0 46 -8 57 -18z"/>
</g>
</svg>
