<?xml version="1.0" encoding="UTF-8"?>
<!DOCTYPE svg PUBLIC "-//W3C//DTD SVG 1.1//EN" "http://www.w3.org/Graphics/SVG/1.1/DTD/svg11.dtd">
<svg xmlns="http://www.w3.org/2000/svg" version="1.1" width="512px" height="512px" style="shape-rendering:geometricPrecision; text-rendering:geometricPrecision; image-rendering:optimizeQuality; fill-rule:evenodd; clip-rule:evenodd" xmlns:xlink="http://www.w3.org/1999/xlink">
<g><path style="opacity:0.979" fill="#000000" d="M 215.5,-0.5 C 218.167,-0.5 220.833,-0.5 223.5,-0.5C 239.614,1.71862 250.614,10.3853 256.5,25.5C 257.552,25.6495 258.552,25.4828 259.5,25C 274.843,12.7671 291.176,11.4338 308.5,21C 322.263,31.3683 328.263,45.2017 326.5,62.5C 356.284,59.211 372.95,72.3777 376.5,102C 376.604,109.749 374.604,116.916 370.5,123.5C 396.802,131.094 407.635,148.427 403,175.5C 400.526,183.646 396.026,190.479 389.5,196C 412.207,212.002 416.707,232.168 403,256.5C 399.799,260.036 396.299,263.203 392.5,266C 408.594,276.596 414.761,291.429 411,310.5C 407.746,322.017 400.913,330.684 390.5,336.5C 410.233,352.527 415.066,372.194 405,395.5C 394.664,408.168 381.497,412.668 365.5,409C 353.546,406.04 344.046,399.54 337,389.5C 322.721,411.498 303.555,416.998 279.5,406C 274.333,402.167 269.833,397.667 266,392.5C 251.142,410.674 232.975,414.84 211.5,405C 204.614,401.114 199.447,395.614 196,388.5C 182.783,403.514 166.617,407.68 147.5,401C 136.103,395.224 128.437,386.224 124.5,374C 104.079,378.642 87.9124,372.475 76,355.5C 71.2394,344.448 70.2394,333.114 73,321.5C 52.7088,330.507 35.3755,326.507 21,309.5C 10.429,291.243 11.929,274.077 25.5,258C 11.9844,252.325 3.31775,242.491 -0.5,228.5C -0.5,222.5 -0.5,216.5 -0.5,210.5C 3.44594,195.717 12.7793,185.883 27.5,181C 13.8997,164.147 13.0664,146.647 25,128.5C 35.5956,116.525 48.7622,111.692 64.5,114C 59.9051,90.1907 68.9051,73.8573 91.5,65C 98.8036,63.2199 106.137,63.0532 113.5,64.5C 112.76,32.4063 128.427,16.9063 160.5,18C 168.528,19.2635 175.361,22.7635 181,28.5C 186.619,11.7055 198.119,2.03886 215.5,-0.5 Z M 247.5,68.5 C 257.218,89.1101 273.384,97.4435 296,93.5C 294.363,119.173 305.863,135.34 330.5,142C 320.023,162.306 323.023,180.306 339.5,196C 341.67,197.586 344.004,198.92 346.5,200C 334.043,209.767 328.876,222.6 331,238.5C 332.998,250.651 339.165,259.984 349.5,266.5C 330.632,282.004 326.799,300.67 338,322.5C 340.312,325.646 342.812,328.646 345.5,331.5C 339.833,335.167 335.167,339.833 331.5,345.5C 315.402,329.846 297.402,327.346 277.5,338C 273.326,341.008 269.659,344.508 266.5,348.5C 249.857,328.562 230.191,325.062 207.5,338C 205,340.5 202.5,343 200,345.5C 187.872,326.624 171.039,320.291 149.5,326.5C 141.794,304.812 126.461,294.979 103.5,297C 99.8468,297.773 96.3468,298.94 93,300.5C 98.4593,276.588 90.2926,259.088 68.5,248C 82.785,229.779 83.1183,211.279 69.5,192.5C 90.9585,183.078 99.6252,166.912 95.5,144C 120.993,145.526 136.826,134.026 143,109.5C 143.767,105.442 143.6,101.442 142.5,97.5C 160.663,100.392 175.496,94.7258 187,80.5C 188.941,76.9523 190.607,73.2857 192,69.5C 205.036,79.8373 219.536,82.3373 235.5,77C 240.236,75.0802 244.236,72.2468 247.5,68.5 Z"/></g>
<g><path style="opacity:0.964" fill="#000000" d="M 511.5,423.5 C 511.5,424.5 511.5,425.5 511.5,426.5C 482.833,454.5 454.5,482.833 426.5,511.5C 425.833,511.5 425.167,511.5 424.5,511.5C 412.224,488.2 399.891,464.867 387.5,441.5C 416.903,434.264 435.07,415.93 442,386.5C 464.824,399.495 487.991,411.828 511.5,423.5 Z"/></g>
</svg>
